Patient4_TMGait_0pt4_01_left_13_EMG.mot
version=1
nRows=26
nColumns=33
inDegrees=no
endheader
time	1LAddLong	2LGlutMax	3LGlutMed	4LIliopsoas	5LSemiMemb	6LBicFemLong	7LRecFem	8LVastMed	9LVastLat	10LGasMed	11LTibAnt	12lTibPost	13LPeroneusLong	14LSol	15LExtDigLong	16LFlexDigLong	17RAddLong	18RGlutMax	19RGlutMed	20RIliopsoas	21RSemiMemb	22RBicFemLong	23RRecFem	24RVastMed	25RVastLat	26RGasMed	27RTibAnt	28RTibPost	29RPeroneusLong	30RSol	31RExtDigLong	32RFlexDigLong
16.955	0.00885	-0.00946	-0.10696	-0.002136	0.021667	0.014801	-0.051117	0.008698	-0.023956	-0.31952	0.010681	0.016937	-0.038757	0.14969	-0.024872	-0.002747	-0.20813	0.022888	0.34271	-0.039063	-0.002594	0.26398	-0.076447	0.055695	0.022278	-0.010071	-0.11963	0.000153	-0.23056	-0.033722	-0.001221	-0.018921
16.956	0.001984	-0.036469	-0.11231	0.003204	0.023193	-0.003967	-0.070343	0.006256	-0.014038	-0.23682	0.019073	0.008698	-0.1059	0.00824	-0.017395	0.02655	-0.097809	0.046082	-0.27084	0.001831	0.027313	0.16144	-0.027618	-0.21652	0.023041	-0.001221	-0.014343	0.000458	-0.23178	-0.016479	-0.002594	-0.002136
16.957	0.010834	-0.014648	-0.13351	0.018616	0.015564	0.034485	-0.081024	0.00061	-0.016632	-0.018005	0.007629	0.015106	-0.12314	-0.067749	0.002289	-0.00351	-0.019226	0.041046	-0.34073	-0.009308	0.14603	0.049438	-0.001526	-0.46921	0.053406	-0.005951	-0.11643	-0.002289	-0.12955	0.007019	-0.001678	-0.00412
16.958	0.010376	-0.022736	-0.15778	0.005341	0.000763	0.05249	-0.05661	0.000153	-0.015259	0.19806	0.005951	0.016479	-0.060272	-0.087585	0.015259	-0.015564	0.054016	0.024567	-0.023041	-0.034332	0.036926	-0.045471	-0.060272	-0.48325	0.10696	-0.007172	-0.18585	0.003815	-0.038605	0.00946	0.001984	-0.005798
16.959	0.007172	-0.023499	-0.14114	0.007782	-0.009155	0.079498	-0.061035	0.007935	-0.01709	-0.046082	0.007172	0.005951	0.023193	-0.10849	0.029907	-0.026398	0.075226	-0.058746	0.57907	-0.006714	0.004578	-0.053406	-0.12405	-0.45487	0.10422	-0.003967	0.18646	-0.000153	-0.046844	-0.03479	0.003204	-0.005798
16.96	0.005798	-0.057983	-0.10117	-0.012665	-0.011749	0.053558	-0.085602	0.00412	-0.007019	0.1442	0.007629	0.007629	0.098267	-0.16541	0.033264	-0.010681	0.011444	-0.033569	0.5336	0.040588	0.1088	0.18204	-0.12726	-0.22766	0.095062	-0.001221	0.42908	0.000305	-0.031281	-0.018158	-0.00473	-0.000916
16.961	0.000305	-0.040131	-0.093536	0.000916	-0.010681	-0.008698	-0.094299	-0.030212	-0.009766	0.044556	0.002899	-0.000153	0.22842	-0.10422	0.034637	0.001373	-0.099335	-0.042877	0.1207	0.014343	-0.018921	0.32638	-0.1001	0.007782	0.12238	0.005646	0.15839	0.000916	0.056763	-0.048676	-0.005493	-0.00885
16.962	0.015717	-0.022583	-0.11093	0.005493	-0.015869	-0.031281	-0.095062	-0.007782	-0.00473	-0.11581	-0.002899	-0.01236	0.25833	0.015259	0.034027	-0.011292	-0.099335	-0.045013	0.15991	-0.024719	0.28381	0.24902	-0.22125	0.17227	0.11932	-0.003815	0.002289	-0.000153	0.086517	-0.028992	-0.004272	-0.005188
16.963	0.012512	-0.047302	-0.098114	0.001831	-0.031738	-0.03418	-0.097961	0.00351	0.004425	-0.16281	-0.004578	-0.016327	0.177	0.11566	0.017242	-0.083466	0.002136	-0.068359	0.30319	0.007477	0.14969	0.098419	-0.15961	0.25894	0.11917	-0.002136	-0.016785	0.001831	0.068054	-0.00473	-0.001526	-0.009155
16.964	-0.002899	-0.042877	-0.10529	-0.005493	-0.024261	-0.05661	-0.071259	0.010529	0.002899	-0.028687	0.009308	0.018616	-0.14893	0.35675	-0.00061	0.053253	0.095367	-0.039063	0.31067	0.014801	-0.36118	-0.000916	-0.063782	0.38788	0.037079	-0.001984	0.013275	-0.002289	0.076904	0.028076	0.003967	-0.008392
16.965	0.019226	-0.018616	-0.1149	0.014801	-0.011444	-0.059662	-0.085297	-0.001984	0.010529	0.13947	0.01358	0.025787	-0.30029	0.29327	-0.019379	-0.046082	0.11276	-0.049286	0.43579	0.013885	-0.40619	0.13962	0.073547	0.11276	-0.046844	-0.008545	0.00885	-0.002441	0.066071	0.055237	0	-0.008392
16.966	0.015869	-0.05661	-0.12711	0.010223	0.0177	-0.030975	-0.064545	0.00351	0.005646	0.02533	-0.00473	0.011902	-0.11704	0.14191	-0.027924	-0.027161	0.17364	-0.019684	0.1207	0.033112	-0.43396	0.27939	0.1091	-0.074921	-0.029449	-0.006866	-0.020905	0.000153	0.062561	0.067444	-0.000763	-0.006409
16.967	0.014801	-0.03891	-0.09964	0.004578	0.011597	-0.003662	-0.059509	-0.000763	0.004578	-0.16815	-0.007324	0.006866	-0.049286	-0.096741	-0.003357	0.29053	0.10376	0.022888	0.071564	-0.029755	0.085144	0.39887	0.041656	-0.112	0.0737	-0.009766	-0.019226	-0.000458	0.051575	0.034637	-0.001678	-0.007935
16.968	0.004272	-0.054779	-0.11383	0.002441	0.00412	-0.040894	-0.060272	0.002899	0.000153	-0.16724	-0.034485	-0.007172	-0.25604	-0.037842	0.045929	0.041046	-0.046997	0.03479	-0.1767	-0.026245	0.58227	0.47409	-0.09201	0.023804	0.14496	-0.005951	-0.003967	0.001984	0.05188	-0.010376	-0.001678	-0.012512
16.969	0.00473	-0.034943	-0.12619	0.014038	0.00946	-0.06073	-0.049591	-0.000305	-0.009766	0.033722	-0.043335	-0.004578	0.07843	-0.26154	0.17609	-0.12482	-0.22675	0.037537	-0.159	-0.019989	0.93048	0.44586	-0.23529	0.14069	0.19424	-0.001221	0.015106	0	0.042877	-0.009003	-0.002441	-0.016937
16.97	0.022888	-0.008698	-0.099182	0.002747	0.005035	-0.009918	-0.043793	-0.000305	-0.02182	0.14481	-0.046692	-0.00351	0.091705	-0.28641	-0.023651	-0.024719	-0.17303	-0.11566	0.098114	-0.000916	0.61249	0.15488	-0.15549	0.032654	0.16327	-0.003967	0.02594	-0.000763	0.028381	0.007019	-0.001068	-0.022278
16.971	0.009613	-0.045624	-0.1152	0.038452	-0.003967	0.012665	-0.065613	0.002747	-0.020599	0.10132	-0.06485	-0.003815	-0.042572	-0.10193	-0.078735	-0.009613	-0.046234	-0.22003	0.24536	-0.054932	0.54275	-0.11841	-0.087433	-0.29175	0.13916	-0.001678	0.009308	-0.001373	0.045319	-0.006866	-0.003204	-0.014038
16.972	0.009003	-0.050659	-0.13992	0.020905	-0.009155	0.002747	-0.04776	0.00885	-0.00885	0.063477	-0.081177	-0.003357	-0.026245	0.13901	0.44586	0.000458	-0.054779	-0.27023	0.2243	-0.068817	0.30319	-0.23056	-0.11597	-0.26962	0.09491	-0.004272	0.030823	-0.002594	0.071411	-0.015411	-0.00473	-0.01236
16.973	0.014343	-0.052032	-0.11276	-0.010681	-0.002594	0.006866	-0.052948	-0.00061	-0.00946	-0.10101	-0.023499	-0.01236	-0.091248	0.25589	0.18204	0.000916	-0.006104	-0.3244	0.6572	-0.045166	0.2803	-0.3212	-0.15656	-0.057068	0.016785	-0.00946	0.049133	-0.004578	0.12817	0.00351	-0.002899	-0.014954
16.974	0.001373	-0.056305	0.032501	-0.012207	-0.007019	0.005951	-0.044098	0.005035	-0.02655	-0.18219	0.090179	-0.00351	-0.12116	0.25589	-0.056915	-0.000305	0.067444	-0.2507	0.51544	-0.12619	0.41168	-0.31784	-0.13077	0.098114	-0.054932	-0.003204	0.068359	-0.002747	0.28778	-0.028076	-0.002747	-0.014801
16.975	0.010071	-0.05249	0.018463	-0.010834	-0.008087	-0.022583	-0.074768	0.00824	-0.036469	-0.16541	0.14191	-0.009003	-0.082855	0.17288	0.20035	0.005035	0.12192	-0.23483	0.25482	0.035858	0.33936	-0.26627	-0.071259	-0.005035	0.070648	-0.005035	0.095978	-0.004425	0.10178	-0.029297	-0.001068	-0.009003
16.976	-0.004425	-0.097809	-0.079193	0.000916	0.008698	-0.048676	-0.079041	-0.000458	-0.023651	-0.10025	0.19684	-0.007477	-0.043945	0.093689	-0.47943	-0.003204	0.19653	-0.25482	0.21515	0.10437	0.26932	-0.1503	-0.032043	-0.16312	0.26443	-0.004425	0.10544	-0.001526	-0.32455	-0.051117	0	-0.009766
16.977	0.00885	-0.072937	-0.071259	0.006866	0.007935	-0.037384	-0.08316	0.00412	-0.022888	-0.084534	-0.002136	0.002594	0.050659	0.059509	-0.35172	0.000305	0.233	-0.26932	-0.17548	0.073395	0.071716	-0.032349	0.03418	-0.17914	0.38666	-0.005798	0.13794	-0.00824	-0.47302	-0.001831	-0.005035	-0.014343
16.978	0.010681	-0.11673	-0.083466	0.002136	-0.003662	-0.00412	-0.080414	0.008698	-0.016327	-0.043182	0.003204	-0.022278	0.015717	0.094452	-0.35492	-0.02243	0.23148	-0.27405	-0.001526	0.086823	-0.1564	-0.042877	0.074768	-0.19134	0.40588	-0.001831	0.063629	-0.005646	0.17731	-0.058594	-0.000153	-0.007935
16.979	0.002136	-0.11459	-0.065918	0.004425	-0.013123	0.004578	-0.079803	0.002136	-0.016937	-0.040588	0.053253	-0.017395	0.027008	0.10849	-0.33936	-0.021515	0.14175	-0.20203	0.15305	0.15976	-0.37247	0.20752	0.007019	-0.076294	0.60547	-0.002289	-0.008392	-0.004425	0.057831	-0.097046	0	-0.003967
16.98	0.010376	-0.081482	-0.010071	0.003967	-0.018158	0.005493	-0.068512	0.003052	-0.003357	-0.009003	0.040283	-0.016479	0.062103	0.10147	-0.32608	-0.003662	-0.027771	-0.10819	0.11032	0.089874	-0.25253	0.6723	-0.036621	-0.056763	0.76996	-0.001984	-0.17593	-0.007019	0.4892	-0.077667	0.000916	-0.003967
